<svg xmlns="http://www.w3.org/2000/svg" viewBox="0 0 75.56 93">
    <defs>
        <style>.cls-1{fill:#f9f9f9;}</style>
    </defs>
    <g id="圖層_2" data-name="圖層 2">
        <g id="圖層_1-2" data-name="圖層 1">
            <path class="cls-1" d="M71.94,8.36H67.42L66.17,2.3A2.91,2.91,0,0,0,63.33,0H12.23A2.89,2.89,0,0,0,9.4,2.3L8.14,8.36H3.62A3.62,3.62,0,0,0,0,12v6.75a2.89,2.89,0,0,0,2.89,2.89H5.4l1,7.07a3.49,3.49,0,0,0-.82.67,3.21,3.21,0,0,0-.74,2.54l6.72,47.23A3.2,3.2,0,0,0,14,81.78l1,6.72A5.26,5.26,0,0,0,20.09,93H55.47a5.25,5.25,0,0,0,5.18-4.5l1-6.72A3.22,3.22,0,0,0,64,79.13L70.73,31.9A3.22,3.22,0,0,0,70,29.36a3.3,3.3,0,0,0-.82-.67l1-7.07h2.5a2.89,2.89,0,0,0,2.89-2.89V12A3.61,3.61,0,0,0,71.94,8.36Zm-4,23L61.24,78.62a.46.46,0,0,1-.46.39h-13a1.41,1.41,0,0,0-1.41,1.2,1.37,1.37,0,0,0,1.36,1.53H58.66L57.78,88a2.52,2.52,0,0,1-2.48,2.14H20.11A2.5,2.5,0,0,1,17.64,88l-.89-6.21H41.34a1.39,1.39,0,0,0,1.4-1.2A1.36,1.36,0,0,0,41.39,79H14.63a.44.44,0,0,1-.45-.39L7.45,31.4A.47.47,0,0,1,7.56,31a.46.46,0,0,1,.32-.16H67.53a.44.44,0,0,1,.32.16A.47.47,0,0,1,68,31.4ZM8.07,21.62H67.35l-.95,6.72H9ZM72.84,18a.89.89,0,0,1-.9.89H3.62a.89.89,0,0,1-.9-.89V12a.89.89,0,0,1,.9-.89H15.76a1.39,1.39,0,0,0,1.4-1.19,1.36,1.36,0,0,0-1.35-1.53H11.05l1.13-5.5a.18.18,0,0,1,.17-.14H63.06a.18.18,0,0,1,.17.14l1.13,5.5H22.13a1.39,1.39,0,0,0-1.4,1.19,1.36,1.36,0,0,0,1.35,1.53H71.94a.89.89,0,0,1,.9.89Z" />
            <path class="cls-1" d="M48,43.78l0,0C43.4,39.27,35.14,40.2,29.5,45.85a16.41,16.41,0,0,0-4.84,9.49,10.53,10.53,0,0,0,2.78,9h0a10.16,10.16,0,0,0,7.33,2.87,13,13,0,0,0,1.63-.1,16.47,16.47,0,0,0,9.49-4.84C51.57,56.6,52.49,48.31,48,43.79Zm-20.6,11.9a13.79,13.79,0,0,1,4.07-7.91,13.36,13.36,0,0,1,9.17-4.15,8,8,0,0,1,3.86.93c-2.29,1.36-5.84,4-6.92,8-.94,3.45-6.05,7.26-8.85,9A8.21,8.21,0,0,1,27.36,55.68ZM44,60.33a13.82,13.82,0,0,1-7.9,4.07,8.48,8.48,0,0,1-5.29-.93c2.81-1.86,8.2-5.89,9.38-10.21,1-3.52,4.76-5.9,6.5-6.82C49.36,50,48.28,56,44,60.33Z" />
        </g>
    </g>
</svg>