<svg xmlns="http://www.w3.org/2000/svg" viewBox="0 0 101.01 101">
    <defs>
        <style>.cls-1{fill:#f9f9f9;}</style>
    </defs>
    <g id="圖層_2" data-name="圖層 2">
        <g id="圖層_1-2" data-name="圖層 1">
            <path class="cls-1" d="M63,27.66A12.53,12.53,0,1,0,50.5,40.18,12.52,12.52,0,0,0,63,27.66ZM41,27.66a9.56,9.56,0,1,1,9.55,9.56A9.56,9.56,0,0,1,41,27.66Z" />
            <path class="cls-1" d="M100.91,99,88.79,67.21a1.49,1.49,0,0,0-1.39-1H64.46l.42-.68c8.83-14.61,13.27-27.39,13.2-38a27.58,27.58,0,0,0-55.16,0c-.06,10.61,4.38,23.39,13.21,38l.42.68H13.61a1.48,1.48,0,0,0-1.39,1L.1,99A1.49,1.49,0,0,0,1,100.9a1.44,1.44,0,0,0,.54.1h98A1.49,1.49,0,0,0,101,99.52a1.62,1.62,0,0,0-.1-.54ZM26,27.66a24.55,24.55,0,1,1,49.09,0h0C75.18,48.73,55.48,74.72,50.5,81c-5-6.23-24.67-32.21-24.54-53.29ZM49.37,84.25a1.48,1.48,0,0,0,2.09.17,1.37,1.37,0,0,0,.17-.17A138.71,138.71,0,0,0,62.57,69H86.29l1.89,5.17L41.83,90.67,25.31,69.22H38.44a157.35,157.35,0,0,0,10.93,15ZM41.78,93.8h0l27.65-9.65L80.17,97.82H30.25ZM14.7,69.22h6.87L38.94,91.79,21.4,98H3.71ZM83.91,98l-11.53-15,16.86-6,8,21Z" />
        </g>
    </g>
</svg>