<svg id="Capa_1" enable-background="new 0 0 512 512" height="512" viewBox="0 0 512 512" width="512" xmlns="http://www.w3.org/2000/svg"><g><g><path d="m502 475.563h-20.299v-26.104c0-28.849-18.579-53.439-44.4-62.435 15.585-12.974 25.522-32.514 25.522-54.331 0-38.97-31.705-70.675-70.675-70.675-19.316 0-36.847 7.789-49.617 20.392-4.579-43.7-41.639-77.875-86.531-77.875s-81.952 34.175-86.531 77.875c-12.77-12.603-30.301-20.392-49.617-20.392-38.97 0-70.675 31.705-70.675 70.675 0 21.817 9.937 41.356 25.522 54.331-25.821 8.996-44.401 33.587-44.401 62.435v26.104h-20.298c-5.523 0-10 4.477-10 10s4.477 10 10 10h200.793c5.523 0 10-4.477 10-10s-4.477-10-10-10h-45.761v-35.823c0-33.741 27.45-61.19 61.19-61.19h59.555c33.74 0 61.19 27.45 61.19 61.19v35.823h-45.762c-5.522 0-10 4.477-10 10s4.478 10 10 10h200.795c5.522 0 10-4.477 10-10s-4.478-10-10-10zm-109.852-193.545c27.942 0 50.675 22.732 50.675 50.675s-22.732 50.675-50.675 50.675-50.675-22.732-50.675-50.675 22.733-50.675 50.675-50.675zm-136.148-57.483c36.948 0 67.008 30.06 67.008 67.007s-30.06 67.008-67.008 67.008-67.007-30.06-67.007-67.007 30.059-67.008 67.007-67.008zm-186.823 108.158c0-27.942 22.732-50.675 50.675-50.675s50.675 22.732 50.675 50.675-22.732 50.675-50.675 50.675-50.675-22.733-50.675-50.675zm-18.879 116.766c0-25.415 20.677-46.091 46.092-46.091h46.923c3.499 0 6.561.365 9.725 1.229-5.13 10.64-8.007 22.562-8.007 35.144v35.823h-94.733zm124.825-72.768c6.783-8.503 11.648-18.6 13.935-29.629 4.5 5.417 9.644 10.281 15.313 14.474-10.826 3.029-20.746 8.251-29.248 15.155zm132.506-15.155c5.669-4.193 10.813-9.057 15.313-14.474 2.287 11.029 7.153 21.126 13.935 29.629-8.502-6.903-18.421-12.126-29.248-15.155zm59.339 114.027v-35.823c0-12.581-2.877-24.504-8.007-35.143 3.164-.864 6.226-1.229 9.725-1.229h46.924c25.415 0 46.091 20.676 46.091 46.091v26.104z"/><path d="m261.37 477.25c-3.456-2.306-8.102-2.196-11.458.246-3.358 2.443-4.852 6.877-3.692 10.858 1.151 3.949 4.71 6.846 8.81 7.173 4.217.337 8.28-2.116 9.96-5.996 1.885-4.349.37-9.669-3.62-12.281z"/><path d="m143.984 213.135c-2.095 0-4.207-.42-6.222-1.274l-23.049-9.765-23.049 9.765c-5.175 2.193-10.979 1.529-15.525-1.774-4.546-3.304-6.97-8.618-6.484-14.217l2.164-24.938-16.41-18.903c-3.684-4.245-4.846-9.97-3.109-15.314s6.042-9.292 11.518-10.559l24.385-5.648 12.908-21.448c2.898-4.815 7.983-7.689 13.603-7.689 5.619 0 10.705 2.875 13.602 7.689l12.908 21.448 24.387 5.648c5.474 1.268 9.78 5.215 11.517 10.56s.574 11.069-3.11 15.313l-16.409 18.903 2.164 24.938c.486 5.599-1.938 10.914-6.485 14.217-2.777 2.015-6.02 3.048-9.304 3.048zm-68.979-69.043 14.694 16.928c1.775 2.045 2.645 4.722 2.411 7.42l-1.938 22.332 20.64-8.744c2.493-1.057 5.309-1.057 7.802 0l20.64 8.744-1.938-22.332c-.234-2.698.636-5.375 2.411-7.42l14.694-16.928-21.838-5.058c-2.638-.611-4.916-2.266-6.312-4.586l-11.559-19.206-11.558 19.206c-1.396 2.32-3.674 3.975-6.312 4.586z"/><path d="m426.559 213.135c-2.095 0-4.206-.42-6.222-1.274l-23.05-9.765-23.048 9.765c-5.176 2.191-10.979 1.53-15.525-1.774-4.547-3.303-6.971-8.617-6.485-14.216l2.164-24.938-16.409-18.903c-3.685-4.246-4.846-9.971-3.108-15.315 1.737-5.344 6.043-9.291 11.518-10.558l24.385-5.648 12.907-21.448c2.897-4.815 7.982-7.689 13.603-7.689s10.705 2.875 13.603 7.69l12.908 21.447 24.386 5.648c5.475 1.268 9.78 5.215 11.517 10.56s.574 11.069-3.109 15.313l-16.409 18.903 2.164 24.938c.485 5.599-1.938 10.914-6.485 14.217-2.778 2.014-6.022 3.047-9.305 3.047zm-68.98-69.043 14.694 16.928c1.775 2.045 2.645 4.722 2.411 7.42l-1.938 22.332 20.64-8.744c2.494-1.057 5.309-1.056 7.803 0l20.64 8.744-1.938-22.331c-.233-2.698.636-5.375 2.411-7.42l14.694-16.928-21.837-5.058c-2.639-.611-4.916-2.266-6.313-4.585l-11.559-19.206-11.558 19.206c-1.396 2.32-3.674 3.975-6.312 4.586z"/><path d="m219.813 162.256c-3.57 0-7.098-1.123-10.116-3.316-4.944-3.592-7.581-9.372-7.052-15.46l2.762-31.831-20.945-24.128c-4.006-4.614-5.27-10.839-3.382-16.652 1.888-5.812 6.57-10.106 12.524-11.485l31.127-7.208 16.477-27.376c3.151-5.236 8.682-8.363 14.792-8.363h.001c6.111 0 11.641 3.127 14.792 8.363l16.475 27.375 31.126 7.208c5.955 1.379 10.637 5.673 12.525 11.486 1.888 5.812.623 12.038-3.384 16.652l-20.943 24.127 2.763 31.831c.528 6.088-2.108 11.868-7.053 15.46-4.945 3.591-11.258 4.313-16.883 1.929l-29.419-12.462-29.419 12.464c-2.193.929-4.489 1.386-6.768 1.386zm36.187-34.71c1.327 0 2.654.264 3.9.792l29.136 12.343-2.736-31.523c-.233-2.698.636-5.375 2.411-7.42l20.742-23.895-30.825-7.139c-2.639-.611-4.916-2.266-6.313-4.586l-16.315-27.112-16.316 27.111c-1.396 2.32-3.673 3.975-6.312 4.586l-30.826 7.139 20.743 23.895c1.775 2.044 2.645 4.722 2.411 7.42l-2.736 31.523 29.135-12.343c1.247-.527 2.574-.791 3.901-.791z"/></g></g></svg>