<svg xmlns="http://www.w3.org/2000/svg" viewBox="0 0 95.43 84.31">
    <defs>
        <style></style>
    </defs>
    <g id="圖層_2" data-name="圖層 2">
        <g id="圖層_1-2" data-name="圖層 1">
            <path class="cls-1" d="M47.71,84.31a2.77,2.77,0,0,1-1.84-.7l-.12-.1c-4.06-3.56-7.88-6.81-11.58-10C24.26,65.1,15.71,57.81,9.76,50.74,3.1,42.82,0,35.43,0,27.49A28.93,28.93,0,0,1,7,8.28,24.19,24.19,0,0,1,25.35,0c10,0,16.42,6,20,11a36.23,36.23,0,0,1,2.37,3.85A38.12,38.12,0,0,1,50.09,11C53.66,6,60,0,70.08,0A24.19,24.19,0,0,1,88.47,8.28a28.93,28.93,0,0,1,7,19.21c0,7.94-3.1,15.33-9.76,23.25-6,7.07-14.5,14.36-24.41,22.81-3.7,3.15-7.52,6.4-11.58,10l-.12.1A2.78,2.78,0,0,1,47.71,84.31ZM25.35,5.59A18.66,18.66,0,0,0,11.16,12,23.33,23.33,0,0,0,5.59,27.49c0,14.36,12.81,25.28,32.21,41.8C41,72,44.26,74.8,47.71,77.8c3.46-3,6.74-5.79,9.92-8.51C77,52.77,89.84,41.85,89.84,27.49A23.33,23.33,0,0,0,84.27,12,18.66,18.66,0,0,0,70.08,5.59c-7.67,0-12.62,4.72-15.43,8.69a33,33,0,0,0-4.28,8.51,2.79,2.79,0,0,1-5.31,0,33.35,33.35,0,0,0-4.28-8.51C38,10.31,33,5.59,25.35,5.59Z" />
        </g>
    </g>
</svg>