<svg xmlns="http://www.w3.org/2000/svg" viewBox="0 0 72.8 104"><defs><style>.cls-1{fill:#002875;}</style></defs><g id="圖層_2" data-name="圖層 2"><g id="圖層_1-2" data-name="圖層 1"><path class="cls-1" d="M71.52,23,65.87,11.72v-10A1.74,1.74,0,0,0,64.13,0H8.67A1.74,1.74,0,0,0,6.93,1.73v10L1.28,23A12.15,12.15,0,0,0,0,28.46v73.81A1.74,1.74,0,0,0,1.73,104H71.07a1.74,1.74,0,0,0,1.73-1.73V28.46A12.15,12.15,0,0,0,71.52,23ZM43.33,3.47H62.4V10.4H43.33ZM32.77,12.84a.66.66,0,0,0,0-.11,1.56,1.56,0,0,0,.11-.52s0,0,0-.07V3.47h6.94v8.25L34.21,23a12.28,12.28,0,0,0-1.28,5.43V41.6H26V28.46a8.68,8.68,0,0,1,.91-3.88l5.84-11.67S32.76,12.86,32.77,12.84ZM10.4,3.47H29.47V10.4H10.4Zm45.07,25v72.07h-52V28.46a8.68,8.68,0,0,1,.91-3.88L9.74,13.87H28.4L23.81,23a12.28,12.28,0,0,0-1.28,5.43V43.33a1.74,1.74,0,0,0,1.74,1.74h10.4a1.74,1.74,0,0,0,1.73-1.74V28.46a8.69,8.69,0,0,1,.92-3.88l5.35-10.71H61.33L56.75,23A12.15,12.15,0,0,0,55.47,28.46Zm13.86,72.07H58.93V28.46a8.82,8.82,0,0,1,.92-3.88L64.13,16l4.29,8.57a8.68,8.68,0,0,1,.91,3.88Z"/><path class="cls-1" d="M31.65,56.26a21.73,21.73,0,0,0-10.84,6.12,21.82,21.82,0,0,0-6.12,10.83,10.73,10.73,0,0,0,2.45,10A9.84,9.84,0,0,0,24.26,86a14.65,14.65,0,0,0,2.88-.29A21.78,21.78,0,0,0,38,79.54a21.77,21.77,0,0,0,6.11-10.83,10.68,10.68,0,0,0-2.44-10A10.67,10.67,0,0,0,31.65,56.26ZM18.09,73.91a18.32,18.32,0,0,1,5.17-9.07,18.37,18.37,0,0,1,9.08-5.18,11.44,11.44,0,0,1,2.18-.23,6.76,6.76,0,0,1,3.93,1.13A12.31,12.31,0,0,1,36,62.05a17.53,17.53,0,0,0-8.15,8.14A12.14,12.14,0,0,1,25.12,74a12.14,12.14,0,0,1-3.85,2.72,16.24,16.24,0,0,0-3,1.83A9.07,9.07,0,0,1,18.09,73.91ZM40.69,68a18.25,18.25,0,0,1-5.17,9.07,18.34,18.34,0,0,1-9.07,5.18,8,8,0,0,1-6.13-.89,12.32,12.32,0,0,1,2.48-1.5,15.68,15.68,0,0,0,4.76-3.39A15.56,15.56,0,0,0,31,71.72a14,14,0,0,1,6.57-6.56,16.24,16.24,0,0,0,3-1.83A9.06,9.06,0,0,1,40.69,68Z"/></g></g></svg>