<svg xmlns="http://www.w3.org/2000/svg" viewBox="0 0 512 455.52">
    <defs>
        <style></style>
    </defs>
    <g id="圖層_2" data-name="圖層 2">
        <g id="圖層_1-2" data-name="圖層 1">
            <path class="cls-1" d="M471.38,44.58C444.88,15.83,408.51,0,369,0c-29.55,0-56.62,9.34-80.45,27.77a164.79,164.79,0,0,0-32.52,34,164.31,164.31,0,0,0-32.53-34C199.65,9.34,172.58,0,143,0,103.49,0,67.12,15.83,40.61,44.58,14.43,73,0,111.8,0,153.87c0,43.3,16.14,82.94,50.78,124.74C81.77,316,126.32,354,177.9,397.93c17.61,15,37.58,32,58.31,50.15a30.06,30.06,0,0,0,39.58,0c20.73-18.13,40.7-35.16,58.32-50.18,51.58-44,96.12-81.9,127.11-119.3C495.87,236.81,512,197.17,512,153.87,512,111.8,497.57,73,471.38,44.58Z" />
        </g>
    </g>
</svg>