<svg id="Capa_1" enable-background="new 0 0 512.005 512.005" height="512" viewBox="0 0 512.005 512.005" width="512" xmlns="http://www.w3.org/2000/svg"><g><g><path d="m341.439 403.84c3.906 3.905 10.236 3.905 14.143 0l48.259-48.258c1.875-1.875 2.929-4.419 2.929-7.071s-1.054-5.196-2.929-7.071l-13.927-13.926c4.675-8.739 8.473-17.904 11.349-27.386h19.689c5.522 0 10-4.477 10-10v-68.248c0-5.523-4.478-10-10-10h-19.689c-2.876-9.483-6.674-18.648-11.349-27.387l13.927-13.926c1.875-1.875 2.929-4.419 2.929-7.071s-1.054-5.196-2.929-7.071l-48.259-48.258c-3.906-3.905-10.236-3.905-14.143 0l-13.926 13.927c-8.739-4.676-17.905-8.474-27.387-11.349v-19.69c0-5.523-4.478-10-10-10h-68.248c-5.523 0-10 4.477-10 10v19.69c-9.482 2.875-18.647 6.672-27.387 11.348l-13.926-13.926c-1.875-1.875-4.419-2.929-7.071-2.929s-5.196 1.054-7.071 2.929l-48.259 48.258c-1.875 1.875-2.929 4.419-2.929 7.071s1.054 5.196 2.929 7.071l13.927 13.926c-4.676 8.74-8.474 17.905-11.349 27.387h-19.69c-5.523 0-10 4.477-10 10v68.248c0 5.523 4.477 10 10 10h19.69c2.875 9.481 6.672 18.646 11.349 27.386l-13.927 13.926c-1.875 1.875-2.929 4.419-2.929 7.071s1.054 5.196 2.929 7.071l48.259 48.258c1.875 1.875 4.419 2.929 7.071 2.929s5.196-1.054 7.071-2.929l13.926-13.926c8.74 4.676 17.904 8.474 27.387 11.348v19.69c0 5.523 4.477 10 10 10h68.248c5.522 0 10-4.477 10-10v-19.69c9.481-2.875 18.647-6.673 27.387-11.349zm-53.711-19.905c-4.465 1.103-7.602 5.109-7.602 9.708v17.309h-48.248v-17.309c0-4.599-3.137-8.605-7.601-9.708-12.796-3.162-25.009-8.223-36.299-15.042-3.938-2.378-8.988-1.763-12.241 1.489l-12.243 12.243-34.117-34.116 12.244-12.244c3.252-3.252 3.867-8.304 1.489-12.241-6.819-11.291-11.88-23.503-15.041-36.298-1.103-4.465-5.109-7.602-9.708-7.602h-17.309v-48.248h17.309c4.599 0 8.605-3.137 9.708-7.602 3.161-12.795 8.222-25.007 15.041-36.298 2.378-3.937 1.763-8.989-1.489-12.241l-12.244-12.244 34.117-34.116 12.243 12.243c3.252 3.253 8.304 3.867 12.241 1.489 11.29-6.819 23.502-11.879 36.299-15.042 4.464-1.103 7.601-5.109 7.601-9.708v-17.309h48.248v17.309c0 4.599 3.137 8.605 7.602 9.708 12.795 3.162 25.008 8.222 36.298 15.042 3.938 2.377 8.986 1.764 12.241-1.489l12.243-12.244 34.116 34.116-12.243 12.244c-3.252 3.252-3.866 8.304-1.488 12.241 6.817 11.288 11.878 23.501 15.041 36.299 1.104 4.464 5.109 7.601 9.708 7.601h17.308v48.248h-17.308c-4.599 0-8.604 3.136-9.708 7.601-3.163 12.798-8.224 25.011-15.041 36.299-2.378 3.937-1.764 8.989 1.488 12.241l12.243 12.244-34.116 34.116-12.243-12.244c-3.254-3.253-8.306-3.865-12.241-1.489-11.29 6.822-23.503 11.883-36.298 15.044z"/><path d="m341.554 299.622v-87.239c0-3.573-1.906-6.874-5-8.66l-75.552-43.62c-3.094-1.786-6.906-1.786-10 0l-75.551 43.62c-3.094 1.786-5 5.087-5 8.66v87.239c0 3.573 1.906 6.874 5 8.66l75.551 43.62c1.547.894 3.273 1.34 5 1.34s3.453-.447 5-1.34l75.552-43.62c3.094-1.786 5-5.087 5-8.66zm-85.552-119.312 55.552 32.073-55.552 32.073-55.551-32.073zm-65.551 49.393 55.551 32.073v64.146l-55.551-32.073zm75.551 96.218v-64.145l55.552-32.073v64.146z"/><path d="m256.002 21.531c39.829 0 79.163 10.2 113.75 29.497 1.542.86 3.214 1.269 4.863 1.269 3.507 0 6.911-1.849 8.741-5.13 2.691-4.823.963-10.914-3.86-13.605-37.558-20.955-80.261-32.031-123.494-32.031-5.523 0-10 4.477-10 10s4.477 10 10 10z"/><path d="m504.471 155.397c-5.255-1.335-10.578 1.753-12.066 6.922-9.966-25.007-23.892-48.512-41.146-69.204-3.539-4.243-9.844-4.812-14.085-1.277-4.241 3.537-4.812 9.843-1.276 14.084 17.054 20.454 30.591 43.882 39.869 68.804l-5.398-3.543c-4.617-3.03-10.817-1.743-13.848 2.874-3.03 4.617-1.744 10.817 2.873 13.847l28.649 18.803c1.653 1.084 3.563 1.64 5.488 1.64 1.221 0 2.448-.224 3.618-.678 3.012-1.169 5.273-3.723 6.071-6.854l8.472-33.259c1.364-5.352-1.869-10.795-7.221-12.159z"/><path d="m256.002 490.473c-53.493 0-103.862-17.604-145.662-50.907-33.529-26.714-59.227-62.385-74.09-102.28l5.386 3.535c4.616 3.029 10.816 1.744 13.847-2.874 3.03-4.617 1.744-10.817-2.874-13.847l-28.649-18.803c-2.702-1.773-6.094-2.131-9.105-.962-3.013 1.169-5.274 3.723-6.072 6.854l-8.472 33.259c-1.363 5.352 1.87 10.795 7.222 12.159.828.211 1.658.312 2.476.312 4.361 0 8.337-2.879 9.592-7.231 16.391 41.085 43.438 77.762 78.276 105.52 45.378 36.155 100.056 55.265 158.125 55.265 5.522 0 10-4.477 10-10s-4.477-10-10-10z"/><path d="m500.473 246.002c-5.522 0-10 4.477-10 10 0 53.493-17.604 103.862-50.907 145.662-26.714 33.529-62.385 59.227-102.28 74.09l3.535-5.386c3.03-4.617 1.744-10.817-2.873-13.847-4.618-3.03-10.817-1.742-13.848 2.874l-18.803 28.649c-1.773 2.702-2.131 6.093-.962 9.106 1.17 3.012 3.723 5.274 6.854 6.071l33.26 8.472c.829.211 1.658.312 2.476.312 4.464 0 8.531-3.011 9.684-7.534 1.337-5.25-1.754-10.578-6.923-12.066 41.087-16.391 77.765-43.438 105.523-78.277 36.154-45.378 55.265-100.056 55.265-158.125-.001-5.524-4.478-10.001-10.001-10.001z"/><path d="m11.531 266.002c5.523 0 10-4.477 10-10 0-53.493 17.604-103.862 50.907-145.662 26.714-33.529 62.385-59.227 102.28-74.09l-3.535 5.386c-3.03 4.617-1.744 10.817 2.874 13.847 1.691 1.11 3.595 1.641 5.478 1.641 3.256 0 6.449-1.588 8.37-4.514l18.803-28.649c1.773-2.701 2.131-6.093.962-9.105-1.169-3.013-3.723-5.274-6.854-6.072l-33.259-8.472c-5.349-1.363-10.796 1.87-12.159 7.222-1.337 5.25 1.753 10.577 6.923 12.066-41.088 16.391-77.766 43.438-105.525 78.278-36.154 45.378-55.265 100.056-55.265 158.124 0 5.523 4.477 10 10 10z"/><circle cx="411.792" cy="67.665" r="10"/></g></g></svg>