<svg xmlns="http://www.w3.org/2000/svg" viewBox="0 0 227.38 34.14"><defs><style>.cls-1,.cls-2,.cls-3{fill:#f9f9f9;}.cls-2{stroke:#085a9d;stroke-width:0.07px;}.cls-2,.cls-3{stroke-miterlimit:10;}.cls-3{stroke:#095fa7;stroke-width:0.15px;}</style></defs><g id="圖層_2" data-name="圖層 2"><g id="圖層_1-2" data-name="圖層 1"><g id="圖層_2-2" data-name="圖層 2"><g id="圖層_1-2-2" data-name="圖層 1-2"><polygon class="cls-1" points="3.95 32.5 5.84 17.74 3.42 15.09 0.79 32.5 3.95 32.5"/><path class="cls-1" d="M3.72,0C4.09,0,.26,2.76,9.86,11.45,16.29,18.52,16.3,26.9,16,26.85,13.09,18.1,9.82,16.24,5,12.19,1.13,8.84,3-.15,3.72,0Z"/><path class="cls-2" d="M0,8.94C8,16.71,14.21,18.29,16,31h0C10.62,17.57,1,19.69,0,8.94Z"/><path class="cls-3" d="M12.51,27.73c.08.4-2.9-2.05-4.07-2.86a9.61,9.61,0,0,1-4.21-6.52C7.87,21,11.78,24.22,12.51,27.73Z"/><path class="cls-1" d="M27,1,16,26.67h0V34.1a.07.07,0,0,0,.09,0l0,0L25.52,12a.06.06,0,0,1,.12,0L28.2,32.44a.06.06,0,0,0,.06.06h3l.07-.08L27.08,1A.06.06,0,0,0,27,1,.05.05,0,0,0,27,1Z"/></g></g><path class="cls-1" d="M42.25,2l4.82,0c1.46,0,2.71-.05,3.75-.1a17.06,17.06,0,0,0,2.11-.17l-1,2.83c-.47-.12-1-.24-1.64-.34S49.05,4,48.28,4a26.5,26.5,0,0,0-2.68-.12l-1.22,0L43,4,41.45,4V15.65c1.47,0,2.78-.05,4-.12l3-.22c1-.08,1.82-.18,2.56-.3l-.66,3.09q-1.47-.2-3-.36-1.32-.15-2.88-.27c-1-.07-2-.11-3-.11V30.7q2.52,0,4.62-.21c1.41-.14,2.63-.31,3.68-.49,1.22-.2,2.34-.43,3.35-.7l-.62,3.44-.77,0-1.14,0q-.62,0-1.32,0l-1.3,0-1.1,0H37v-.08a10.57,10.57,0,0,0,.25-1.11c.08-.44.14-1,.2-1.64s.1-1.43.13-2.33,0-1.95,0-3.16V10.4c0-1.21,0-2.26,0-3.16s-.07-1.69-.13-2.35-.12-1.2-.2-1.64A10.57,10.57,0,0,0,37,2.14V2.05C38.74,2.05,40.5,2.05,42.25,2Z"/><path class="cls-1" d="M62.82,24.25c0,1.21,0,2.26.06,3.16s.07,1.68.12,2.33.12,1.2.19,1.64a10.57,10.57,0,0,0,.25,1.11v.08H58.33v-.08a10.57,10.57,0,0,0,.25-1.11c.07-.44.14-1,.2-1.64s.1-1.43.13-2.33,0-1.95,0-3.16V10.4c0-1.21,0-2.26,0-3.16s-.08-1.69-.13-2.35-.13-1.2-.2-1.64a10.57,10.57,0,0,0-.25-1.11V2.05l.9.09c.26,0,.57,0,.9,0h1A15.94,15.94,0,0,0,63.41,2,27,27,0,0,1,67,1.8a12.29,12.29,0,0,1,3.78.55A8.81,8.81,0,0,1,73.8,4a7.22,7.22,0,0,1,2,2.61,8.17,8.17,0,0,1,.72,3.5,9.56,9.56,0,0,1-.4,2.84A8.87,8.87,0,0,1,75,15.29a8.54,8.54,0,0,1-1.72,1.88,9.71,9.71,0,0,1-2.23,1.38L78.53,29c.37.53.71,1,1,1.36a10,10,0,0,0,.92,1,6.64,6.64,0,0,0,.84.67,4.73,4.73,0,0,0,.83.44v.08H76a3.89,3.89,0,0,0-.42-1.07,11.11,11.11,0,0,0-.82-1.33L67.23,19.55a21.52,21.52,0,0,1-2.15.1,13.52,13.52,0,0,1-2.26-.19Zm0-6.45a11.3,11.3,0,0,0,3.82.11,6.58,6.58,0,0,0,3-1.21,6.2,6.2,0,0,0,1.94-2.55,9.86,9.86,0,0,0,.69-3.9,10.86,10.86,0,0,0-.36-2.9,6.12,6.12,0,0,0-1.08-2.2A4.76,4.76,0,0,0,69,3.75a5.94,5.94,0,0,0-2.54-.5,14.74,14.74,0,0,0-1.59.07c-.46.05-.84.1-1.15.16a7.21,7.21,0,0,0-.92.23Z"/><path class="cls-1" d="M108.77,6.74l-.19.08a12.71,12.71,0,0,0-4-2.45,14.82,14.82,0,0,0-10-.07,10.68,10.68,0,0,0-3.85,2.44,11.08,11.08,0,0,0-2.5,3.91,14.76,14.76,0,0,0-.89,5.28A20.88,20.88,0,0,0,88.17,22a14.14,14.14,0,0,0,2.53,4.88,11.72,11.72,0,0,0,4.21,3.25,13.83,13.83,0,0,0,5.88,1.18,12,12,0,0,0,4.76-1,12.22,12.22,0,0,0,2.1-1.22,10.64,10.64,0,0,0,1.8-1.62l.24.14L108,32a18.24,18.24,0,0,1-3.52.94,22.92,22.92,0,0,1-3.88.33,21.76,21.76,0,0,1-7.21-1.14,16.39,16.39,0,0,1-5.61-3.22,14.65,14.65,0,0,1-3.67-5,15.79,15.79,0,0,1-1.3-6.5,15.69,15.69,0,0,1,2-7.71A15.11,15.11,0,0,1,87.3,6.41a15.52,15.52,0,0,1,3.35-2.57A17.2,17.2,0,0,1,94.8,2.15a18.71,18.71,0,0,1,4.91-.61,22.38,22.38,0,0,1,7.61,1.26Z"/><path class="cls-1" d="M135.42,10.4c0-1.21,0-2.26,0-3.16s-.08-1.69-.13-2.35-.12-1.2-.19-1.64a8.69,8.69,0,0,0-.24-1.11V2.05h3.79v.09a10.84,10.84,0,0,0-.24,1.11,16,16,0,0,0-.2,1.64c0,.66-.09,1.44-.12,2.35S138,9.19,138,10.4V21.89a13.81,13.81,0,0,1-.87,5.19,9.09,9.09,0,0,1-2.43,3.52,9.43,9.43,0,0,1-3.72,2,17.39,17.39,0,0,1-4.75.62,18.9,18.9,0,0,1-4.8-.59,10.36,10.36,0,0,1-3.87-1.93A8.94,8.94,0,0,1,115,27.26,12.62,12.62,0,0,1,114,22.1V10.4c0-1.21,0-2.26,0-3.16s-.07-1.69-.13-2.35-.13-1.2-.2-1.64a10.57,10.57,0,0,0-.25-1.11V2.05h5.11v.09a10.57,10.57,0,0,0-.25,1.11c-.07.44-.14,1-.2,1.64S118,6.33,118,7.24s0,1.95,0,3.16V22.34a10,10,0,0,0,.76,4.18,6.84,6.84,0,0,0,2,2.62,7.41,7.41,0,0,0,2.81,1.35,13.75,13.75,0,0,0,6.42,0,7.3,7.3,0,0,0,2.8-1.35,6.92,6.92,0,0,0,2-2.62,10,10,0,0,0,.76-4.18Z"/><path class="cls-1" d="M149,24.25c0,1.21,0,2.26,0,3.16s.08,1.68.13,2.33a16.34,16.34,0,0,0,.19,1.64,10.57,10.57,0,0,0,.25,1.11v.08h-5.11v-.08q.12-.45.24-1.11a16,16,0,0,0,.2-1.64c.06-.65.1-1.43.13-2.33s0-1.95,0-3.16V10.4c0-1.21,0-2.26,0-3.16S145,5.55,145,4.89a16,16,0,0,0-.2-1.64q-.12-.66-.24-1.11V2.05l.89.09c.27,0,.57,0,.91,0h1A15.83,15.83,0,0,0,149.6,2a27.31,27.31,0,0,1,3.61-.2,12.38,12.38,0,0,1,3.78.55A8.9,8.9,0,0,1,160,4a7.45,7.45,0,0,1,2,2.61,8.17,8.17,0,0,1,.71,3.5,9.9,9.9,0,0,1-.39,2.84,8.6,8.6,0,0,1-1.11,2.37,8.26,8.26,0,0,1-1.71,1.88,9.77,9.77,0,0,1-2.24,1.38L164.73,29a16.48,16.48,0,0,0,1,1.36,10,10,0,0,0,.91,1,6.64,6.64,0,0,0,.84.67,5.11,5.11,0,0,0,.83.44v.08h-6.15a3.8,3.8,0,0,0-.41-1.07,12.56,12.56,0,0,0-.82-1.33l-7.54-10.62a21.38,21.38,0,0,1-2.15.1,13.4,13.4,0,0,1-2.25-.19Zm0-6.45a11.29,11.29,0,0,0,3.82.11,6.62,6.62,0,0,0,3-1.21,6.18,6.18,0,0,0,1.93-2.55,9.68,9.68,0,0,0,.7-3.9,10.46,10.46,0,0,0-.37-2.9A6.11,6.11,0,0,0,157,5.15a4.8,4.8,0,0,0-1.8-1.4,5.89,5.89,0,0,0-2.53-.5,15.07,15.07,0,0,0-1.6.07c-.45.05-.83.1-1.15.16a7,7,0,0,0-.91.23Z"/><path class="cls-1" d="M170.47,32.49a10.84,10.84,0,0,0,.24-1.11c.07-.44.13-1,.19-1.64s.1-1.43.12-2.33,0-1.95,0-3.16V10.4c0-1.21,0-2.26,0-3.16s-.07-1.69-.12-2.35-.12-1.2-.19-1.64a10.84,10.84,0,0,0-.24-1.11V2.05h5.09v.09a10.57,10.57,0,0,0-.25,1.11c-.07.44-.14,1-.19,1.64S175,6.33,175,7.24s-.05,1.95-.05,3.16V24.25c0,1.21,0,2.26.05,3.16s.08,1.68.13,2.33.12,1.2.19,1.64a10.57,10.57,0,0,0,.25,1.11v.08h-5.09Z"/><path class="cls-1" d="M203.67,10.4c0-1.21,0-2.26,0-3.16s-.07-1.69-.13-2.35-.12-1.2-.19-1.64a11.13,11.13,0,0,0-.23-1.11V2.05h3.79v.09a10.57,10.57,0,0,0-.25,1.11,16.34,16.34,0,0,0-.19,1.64c-.05.66-.09,1.44-.13,2.35s-.05,1.95-.05,3.16V21.89a13.81,13.81,0,0,1-.87,5.19A9.31,9.31,0,0,1,203,30.6a9.54,9.54,0,0,1-3.73,2,17.26,17.26,0,0,1-4.74.62,18.79,18.79,0,0,1-4.8-.59,10.36,10.36,0,0,1-3.87-1.93,9,9,0,0,1-2.59-3.45,12.79,12.79,0,0,1-.94-5.16V10.4c0-1.21,0-2.26,0-3.16s-.07-1.69-.13-2.35a16,16,0,0,0-.2-1.64q-.12-.66-.24-1.11V2.05h5.1v.09q-.12.45-.24,1.11a16,16,0,0,0-.2,1.64c-.06.66-.1,1.44-.13,2.35s0,1.95,0,3.16V22.34a10.15,10.15,0,0,0,.75,4.18,7,7,0,0,0,2,2.62,7.48,7.48,0,0,0,2.81,1.35,13.79,13.79,0,0,0,6.43,0,7.37,7.37,0,0,0,2.8-1.35,7.12,7.12,0,0,0,2-2.62,10.15,10.15,0,0,0,.75-4.18Z"/><path class="cls-1" d="M225.51,6.91H225a5.57,5.57,0,0,0-.54-1.11,5.26,5.26,0,0,0-1-1.16,5.47,5.47,0,0,0-1.47-.91,5.22,5.22,0,0,0-2-.36,5,5,0,0,0-1.85.32A3.68,3.68,0,0,0,216,6a5,5,0,0,0-.28,1.74,5.54,5.54,0,0,0,.86,2.93,17.61,17.61,0,0,0,2.16,2.76c.87.9,1.8,1.81,2.81,2.72a35.69,35.69,0,0,1,2.81,2.83A15.92,15.92,0,0,1,226.52,22a7.23,7.23,0,0,1,.86,3.45,8.47,8.47,0,0,1-.48,2.78,7.06,7.06,0,0,1-1.48,2.5,7.32,7.32,0,0,1-2.57,1.8,9.3,9.3,0,0,1-3.75.69,11.46,11.46,0,0,1-2.31-.22,15.15,15.15,0,0,1-2-.55,12.34,12.34,0,0,1-1.66-.72,11.37,11.37,0,0,1-1.2-.7l.49-4.7h.53a6.78,6.78,0,0,0,.77,1.9,6.33,6.33,0,0,0,1.31,1.6,6.06,6.06,0,0,0,1.77,1.1,5.64,5.64,0,0,0,2.2.42,5.37,5.37,0,0,0,1.94-.33,4.22,4.22,0,0,0,1.48-.92,4,4,0,0,0,.95-1.39,4.65,4.65,0,0,0,.33-1.77,6.17,6.17,0,0,0-.49-2.48,10.46,10.46,0,0,0-1.29-2.16,16.56,16.56,0,0,0-1.81-2c-.67-.64-1.36-1.28-2.07-1.93s-1.4-1.31-2.08-2a17,17,0,0,1-1.81-2.18,11.28,11.28,0,0,1-1.28-2.49,8.34,8.34,0,0,1-.49-2.93,6.8,6.8,0,0,1,.65-3,7.2,7.2,0,0,1,1.72-2.31A7.69,7.69,0,0,1,217.17,2,7.9,7.9,0,0,1,220,1.5a10.73,10.73,0,0,1,2,.17,13.52,13.52,0,0,1,1.61.4c.48.16.89.32,1.25.47l.87.39Z"/></g></g></svg>