<svg xmlns="http://www.w3.org/2000/svg" viewBox="0 0 137.07 102.79">
    <defs>
        <style>.cls-1{fill:#f9f9f9;}</style>
    </defs>
    <g id="圖層_2" data-name="圖層 2">
        <g id="圖層_1-2" data-name="圖層 1">
            <g id="Page-1">
                <g id="_018---Latte-Art" data-name="018---Latte-Art">
                    <path id="Shape" class="cls-1" d="M57.1,102.79c17.34,0,31.05-5,40.75-15a47.83,47.83,0,0,0,5.57-7,25.6,25.6,0,0,1,6.23-2.23c.86-.2,1.78-.4,2.74-.6,9-1.92,22.62-4.82,24.46-18.31a20.84,20.84,0,0,0,.19-2.84s0,0,0-.08V46.25a12.77,12.77,0,0,0-5.14-10.9C127,31.79,119.85,31.86,114,33.28,111.37,14.65,86.87,0,57.1,0,25.62,0,0,16.4,0,36.55c0,.21,0,.42,0,.63C-.24,49.71,1.56,72.64,16.37,87.81c9.7,9.94,23.41,15,40.73,15ZM94.47,84.64c-8.8,9-21.41,13.6-37.47,13.6s-28.66-4.56-37.46-13.6C10.56,75.44,6.79,63,5.32,52.09c9.13,12.41,28.86,21,51.68,21s42.59-8.63,51.71-21.06c-1.46,10.84-5.23,23.36-14.23,32.58Zm37.74-25.43C130.8,69.52,120,71.82,111.32,73.68l-2.8.61c-.56.13-1.09.27-1.62.42a75.79,75.79,0,0,0,6.79-26c6.37-1.84,12.61-1.39,15.85,1.28,2.34,1.93,3.24,5,2.67,9.19Zm-3-20.16a8.31,8.31,0,0,1,3.25,7.2v.06c-4.87-4-12.18-4-18.36-2.52.09-2.11.11-4.07.09-5.84,6-1.65,11.76-1.27,15,1.11ZM57,4.59c28.74,0,52.13,14.14,52.45,31.58v.06l.27.1v.15c0,17.71-23.66,32.11-52.74,32.11-28.76,0-52.2-14.08-52.72-31.51V36.8l.27-.12v-.15C4.55,18.91,28.09,4.59,57,4.59Z" />
                    <path id="Shape-2" data-name="Shape" class="cls-1" d="M12.65,46.55a2.28,2.28,0,1,0,3.69-2.69,12.52,12.52,0,0,1-2.74-7.31C13.6,25.76,32.16,13.7,57,13.7a65.67,65.67,0,0,1,28.32,5.94,2.28,2.28,0,0,0,2-4.11A69.94,69.94,0,0,0,57,9.14C28.31,9.14,9,23.3,9,36.55a16.91,16.91,0,0,0,3.62,10Z" />
                    <path id="Shape-3" data-name="Shape" class="cls-1" d="M100.4,36.55c0,10.78-18.56,22.84-43.4,22.84a63.19,63.19,0,0,1-31.59-7.68,2.29,2.29,0,0,0-3.5,1.94,2.26,2.26,0,0,0,1.18,2A67.69,67.69,0,0,0,57,64c28.69,0,48-14.17,48-27.41a18.77,18.77,0,0,0-5.76-12.62,2.29,2.29,0,1,0-3.33,3.13A14.29,14.29,0,0,1,100.4,36.55Z" />
                    <path id="Shape-4" data-name="Shape" class="cls-1" d="M56.89,54.75c15.2,0,27.14-6.91,27.3-15.75A2.35,2.35,0,0,0,82,36.55a2.27,2.27,0,0,0-2.37,2.27c0,5.79-9.17,10.73-20.48,11.32v-4.6c7.2-.53,12-3.44,13.28-5.58a2.2,2.2,0,0,0-.78-3,2.35,2.35,0,0,0-3.14.66A15.3,15.3,0,0,1,59.16,41V35.92c9-2.91,13.65-6.52,13.65-10.75,0-3.89-3.91-6.83-9.1-6.83A14.19,14.19,0,0,0,56.89,20a14.26,14.26,0,0,0-6.83-1.61c-5.19,0-9.1,2.94-9.1,6.83C41,29.4,45.59,33,54.61,35.92V41a15.47,15.47,0,0,1-9.34-3.31A2.28,2.28,0,1,0,41.33,40c1.24,2.14,6.09,5,13.28,5.58v4.6c-11.3-.59-20.46-5.53-20.48-11.31a2.28,2.28,0,0,0-4.55,0C29.58,47.75,41.58,54.75,56.89,54.75ZM45.58,25.13c0-.94,1.63-2.29,4.57-2.29a8.69,8.69,0,0,1,5.35,1.5,2.31,2.31,0,0,0,3,0,8.68,8.68,0,0,1,5.36-1.5c2.94,0,4.57,1.35,4.57,2.29,0,1.22-2.42,4-11.42,6.75C48,29.12,45.58,26.35,45.58,25.13Z" />
                </g>
            </g>
        </g>
    </g>
</svg>