<svg xmlns="http://www.w3.org/2000/svg" viewBox="0 0 275.99 81"><defs><style>.cls-1{fill:#0065b4;}.cls-2,.cls-3,.cls-4,.cls-5{fill:#f9f9f9;}.cls-3{stroke:#085a9d;stroke-width:0.07px;}.cls-3,.cls-4{stroke-miterlimit:10;}.cls-4{stroke:#095fa7;stroke-width:0.15px;}.cls-5{font-size:42.63px;font-family:MarcellusSC-Regular, Marcellus SC;letter-spacing:0.03em;}</style></defs><g id="圖層_2" data-name="圖層 2"><g id="圖層_1-2" data-name="圖層 1"><rect class="cls-1" width="275.99" height="81"/><g id="圖層_2-2" data-name="圖層 2"><g id="圖層_1-2-2" data-name="圖層 1-2"><polygon class="cls-2" points="22.93 56 24.82 41.24 22.4 38.59 19.77 56 22.93 56"/><path class="cls-2" d="M22.7,23.5c.37,0-3.46,2.76,6.14,11.45C35.27,42,35.28,50.4,35,50.35,32.07,41.6,28.8,39.74,24,35.69,20.11,32.34,22,23.35,22.7,23.5Z"/><path class="cls-3" d="M19,32.44c8,7.77,14.17,9.35,16,22.06h0C29.6,41.07,20,43.19,19,32.44Z"/><path class="cls-4" d="M31.49,51.23c.08.4-2.9-2-4.07-2.86a9.57,9.57,0,0,1-4.21-6.52C26.85,44.5,30.76,47.72,31.49,51.23Z"/><path class="cls-2" d="M45.92,24.49,35,50.17h0V57.6a.07.07,0,0,0,.09,0s0,0,0,0l9.39-22.08a.06.06,0,0,1,.06-.06.06.06,0,0,1,.06.06l2.56,20.42a.06.06,0,0,0,.06.06h3l.07-.08L46.05,24.51s0-.06-.08-.05A.05.05,0,0,0,45.92,24.49Z"/></g></g><text class="cls-5" transform="translate(55.07 55.57)">ERCURIUS</text></g></g></svg>